<mxfile host="app.diagrams.net" agent="Mozilla/5.0 (Windows NT 10.0; Win64; x64) AppleWebKit/537.36 (KHTML, like Gecko) Chrome/140.0.0.0 Safari/537.36" version="28.2.5">
  <diagram id="Il9Fi1deLX2TvpJTLiLy" name="Página-1">
    <mxGraphModel dx="2729" dy="702" grid="0" gridSize="10" guides="1" tooltips="1" connect="1" arrows="1" fold="1" page="0" pageScale="1" pageWidth="827" pageHeight="1169" math="0" shadow="0">
      <root>
        <mxCell id="0" />
        <mxCell id="1" parent="0" />
        <mxCell id="XDs6qOpa_2APzOStyn8Z-66" value="" style="group" vertex="1" connectable="0" parent="1">
          <mxGeometry x="-468" y="600" width="231" height="75.45999999999992" as="geometry" />
        </mxCell>
        <mxCell id="XDs6qOpa_2APzOStyn8Z-60" value="" style="strokeWidth=2;html=1;shape=mxgraph.flowchart.multi-document;whiteSpace=wrap;" vertex="1" parent="XDs6qOpa_2APzOStyn8Z-66">
          <mxGeometry x="49.860000000000014" width="66.27" height="45.18" as="geometry" />
        </mxCell>
        <mxCell id="XDs6qOpa_2APzOStyn8Z-62" value="&lt;span style=&quot;font-size: 15px;&quot;&gt;Selecionar&amp;nbsp;&lt;/span&gt;&lt;div&gt;&lt;span style=&quot;font-size: 15px;&quot;&gt;Vídeo Base&lt;/span&gt;&lt;/div&gt;" style="text;whiteSpace=wrap;html=1;labelBackgroundColor=none;align=center;" vertex="1" parent="XDs6qOpa_2APzOStyn8Z-66">
          <mxGeometry y="42" width="166" height="30.28" as="geometry" />
        </mxCell>
        <mxCell id="XDs6qOpa_2APzOStyn8Z-65" value="" style="group" vertex="1" connectable="0" parent="XDs6qOpa_2APzOStyn8Z-66">
          <mxGeometry x="178" width="166" height="75.45999999999992" as="geometry" />
        </mxCell>
        <mxCell id="XDs6qOpa_2APzOStyn8Z-63" value="" style="strokeWidth=2;html=1;shape=mxgraph.flowchart.multi-document;whiteSpace=wrap;" vertex="1" parent="XDs6qOpa_2APzOStyn8Z-65">
          <mxGeometry x="46.5" width="66.27" height="45.18" as="geometry" />
        </mxCell>
        <mxCell id="XDs6qOpa_2APzOStyn8Z-64" value="&lt;span style=&quot;font-size: 15px;&quot;&gt;Selecionar Vídeo De Comparação&lt;/span&gt;" style="text;whiteSpace=wrap;html=1;labelBackgroundColor=none;align=center;" vertex="1" parent="XDs6qOpa_2APzOStyn8Z-65">
          <mxGeometry y="45.17999999999995" width="166" height="30.28" as="geometry" />
        </mxCell>
        <mxCell id="XDs6qOpa_2APzOStyn8Z-104" style="edgeStyle=orthogonalEdgeStyle;rounded=0;orthogonalLoop=1;jettySize=auto;html=1;exitX=1;exitY=0.5;exitDx=0;exitDy=0;exitPerimeter=0;entryX=0;entryY=0.5;entryDx=0;entryDy=0;entryPerimeter=0;" edge="1" parent="XDs6qOpa_2APzOStyn8Z-66" source="XDs6qOpa_2APzOStyn8Z-60" target="XDs6qOpa_2APzOStyn8Z-63">
          <mxGeometry relative="1" as="geometry">
            <mxPoint x="217" y="16" as="targetPoint" />
          </mxGeometry>
        </mxCell>
        <mxCell id="XDs6qOpa_2APzOStyn8Z-116" value="&lt;font style=&quot;font-size: 15px;&quot;&gt;[]&amp;gt;&amp;gt;&lt;/font&gt;" style="edgeLabel;html=1;align=center;verticalAlign=middle;resizable=0;points=[];" vertex="1" connectable="0" parent="XDs6qOpa_2APzOStyn8Z-104">
          <mxGeometry x="-0.147" y="1" relative="1" as="geometry">
            <mxPoint as="offset" />
          </mxGeometry>
        </mxCell>
        <mxCell id="XDs6qOpa_2APzOStyn8Z-67" value="" style="group" vertex="1" connectable="0" parent="1">
          <mxGeometry x="-378.25" y="448" width="166" height="97.72999999999996" as="geometry" />
        </mxCell>
        <mxCell id="XDs6qOpa_2APzOStyn8Z-58" value="" style="ellipse;shape=cloud;whiteSpace=wrap;html=1;strokeWidth=2;" vertex="1" parent="XDs6qOpa_2APzOStyn8Z-67">
          <mxGeometry x="28" width="103.5" height="69" as="geometry" />
        </mxCell>
        <mxCell id="XDs6qOpa_2APzOStyn8Z-59" value="&lt;span style=&quot;font-size: 15px;&quot;&gt;Escolher Vídeos&lt;/span&gt;" style="text;whiteSpace=wrap;html=1;labelBackgroundColor=none;align=center;" vertex="1" parent="XDs6qOpa_2APzOStyn8Z-67">
          <mxGeometry y="67.44999999999999" width="166" height="30.28" as="geometry" />
        </mxCell>
        <mxCell id="XDs6qOpa_2APzOStyn8Z-68" value="" style="group" vertex="1" connectable="0" parent="1">
          <mxGeometry x="-556.53" y="460.09000000000003" width="166" height="82.18999999999994" as="geometry" />
        </mxCell>
        <mxCell id="XDs6qOpa_2APzOStyn8Z-55" value="" style="shape=actor;whiteSpace=wrap;html=1;strokeWidth=2;" vertex="1" parent="XDs6qOpa_2APzOStyn8Z-68">
          <mxGeometry x="63.95999999999998" width="38.07" height="51.91" as="geometry" />
        </mxCell>
        <mxCell id="XDs6qOpa_2APzOStyn8Z-56" value="&lt;span style=&quot;color: rgb(0, 0, 0); font-family: Helvetica; font-style: normal; font-variant-ligatures: normal; font-variant-caps: normal; font-weight: 400; letter-spacing: normal; orphans: 2; text-indent: 0px; text-transform: none; widows: 2; word-spacing: 0px; -webkit-text-stroke-width: 0px; white-space: normal; text-decoration-thickness: initial; text-decoration-style: initial; text-decoration-color: initial; float: none; display: inline !important;&quot;&gt;&lt;font style=&quot;font-size: 15px;&quot;&gt;Analisar&amp;nbsp;&lt;/font&gt;&lt;/span&gt;&lt;div style=&quot;&quot;&gt;&lt;span style=&quot;color: rgb(0, 0, 0); font-family: Helvetica; font-style: normal; font-variant-ligatures: normal; font-variant-caps: normal; font-weight: 400; letter-spacing: normal; orphans: 2; text-indent: 0px; text-transform: none; widows: 2; word-spacing: 0px; -webkit-text-stroke-width: 0px; white-space: normal; text-decoration-thickness: initial; text-decoration-style: initial; text-decoration-color: initial; float: none; display: inline !important;&quot;&gt;&lt;font style=&quot;font-size: 15px;&quot;&gt;vídeos já gravados&lt;/font&gt;&lt;/span&gt;&lt;/div&gt;" style="text;whiteSpace=wrap;html=1;labelBackgroundColor=none;align=center;" vertex="1" parent="XDs6qOpa_2APzOStyn8Z-68">
          <mxGeometry y="51.90999999999997" width="166" height="30.28" as="geometry" />
        </mxCell>
        <mxCell id="XDs6qOpa_2APzOStyn8Z-69" value="" style="group" vertex="1" connectable="0" parent="1">
          <mxGeometry x="-305" y="316" width="245" height="92.28" as="geometry" />
        </mxCell>
        <mxCell id="XDs6qOpa_2APzOStyn8Z-49" value="&lt;span style=&quot;color: rgb(0, 0, 0); font-family: Helvetica; font-style: normal; font-variant-ligatures: normal; font-variant-caps: normal; letter-spacing: normal; orphans: 2; text-align: center; text-indent: 0px; text-transform: none; widows: 2; word-spacing: 0px; -webkit-text-stroke-width: 0px; white-space: normal; text-decoration-thickness: initial; text-decoration-style: initial; text-decoration-color: initial; float: none; display: inline !important;&quot;&gt;&lt;font style=&quot;font-size: 14px;&quot;&gt;&lt;b&gt;Comparar Pose Com Vídeo Gravado&lt;/b&gt;&lt;/font&gt;&lt;/span&gt;" style="text;whiteSpace=wrap;html=1;labelBackgroundColor=none;" vertex="1" parent="XDs6qOpa_2APzOStyn8Z-69">
          <mxGeometry y="62" width="245" height="30.28" as="geometry" />
        </mxCell>
        <mxCell id="XDs6qOpa_2APzOStyn8Z-57" value="" style="ellipse;shape=cloud;whiteSpace=wrap;html=1;strokeWidth=2;" vertex="1" parent="XDs6qOpa_2APzOStyn8Z-69">
          <mxGeometry x="67.75" width="103.5" height="69" as="geometry" />
        </mxCell>
        <mxCell id="XDs6qOpa_2APzOStyn8Z-75" value="" style="group" vertex="1" connectable="0" parent="1">
          <mxGeometry x="-187" y="450.09" width="166" height="93.28000000000003" as="geometry" />
        </mxCell>
        <mxCell id="XDs6qOpa_2APzOStyn8Z-70" value="" style="rhombus;whiteSpace=wrap;html=1;strokeWidth=2;" vertex="1" parent="XDs6qOpa_2APzOStyn8Z-75">
          <mxGeometry x="51.5" width="63" height="63" as="geometry" />
        </mxCell>
        <mxCell id="XDs6qOpa_2APzOStyn8Z-72" value="&lt;span style=&quot;font-size: 15px;&quot;&gt;Processar Vídeos&lt;/span&gt;" style="text;whiteSpace=wrap;html=1;labelBackgroundColor=none;align=center;" vertex="1" parent="XDs6qOpa_2APzOStyn8Z-75">
          <mxGeometry y="63.00000000000006" width="166" height="30.28" as="geometry" />
        </mxCell>
        <mxCell id="XDs6qOpa_2APzOStyn8Z-81" style="edgeStyle=orthogonalEdgeStyle;rounded=0;orthogonalLoop=1;jettySize=auto;html=1;exitX=0.875;exitY=0.5;exitDx=0;exitDy=0;exitPerimeter=0;entryX=0;entryY=0.5;entryDx=0;entryDy=0;" edge="1" parent="1" source="XDs6qOpa_2APzOStyn8Z-58" target="XDs6qOpa_2APzOStyn8Z-70">
          <mxGeometry relative="1" as="geometry" />
        </mxCell>
        <mxCell id="XDs6qOpa_2APzOStyn8Z-117" value="&lt;font style=&quot;font-size: 15px;&quot;&gt;[]&amp;gt;&amp;gt;&lt;/font&gt;" style="edgeLabel;html=1;align=center;verticalAlign=middle;resizable=0;points=[];" vertex="1" connectable="0" parent="XDs6qOpa_2APzOStyn8Z-81">
          <mxGeometry x="-0.0514" y="2" relative="1" as="geometry">
            <mxPoint as="offset" />
          </mxGeometry>
        </mxCell>
        <mxCell id="XDs6qOpa_2APzOStyn8Z-84" style="edgeStyle=orthogonalEdgeStyle;rounded=0;orthogonalLoop=1;jettySize=auto;html=1;exitX=0.9;exitY=0.5;exitDx=0;exitDy=0;exitPerimeter=0;entryX=0.16;entryY=0.55;entryDx=0;entryDy=0;entryPerimeter=0;" edge="1" parent="1" source="XDs6qOpa_2APzOStyn8Z-55" target="XDs6qOpa_2APzOStyn8Z-58">
          <mxGeometry relative="1" as="geometry" />
        </mxCell>
        <mxCell id="XDs6qOpa_2APzOStyn8Z-115" value="&amp;gt;&amp;gt;" style="edgeLabel;html=1;align=center;verticalAlign=middle;resizable=0;points=[];fontSize=15;" vertex="1" connectable="0" parent="XDs6qOpa_2APzOStyn8Z-84">
          <mxGeometry x="-0.0748" y="2" relative="1" as="geometry">
            <mxPoint as="offset" />
          </mxGeometry>
        </mxCell>
        <mxCell id="XDs6qOpa_2APzOStyn8Z-87" style="edgeStyle=orthogonalEdgeStyle;rounded=0;orthogonalLoop=1;jettySize=auto;html=1;exitX=0.75;exitY=1;exitDx=0;exitDy=0;entryX=0.5;entryY=0;entryDx=0;entryDy=0;entryPerimeter=0;" edge="1" parent="1" source="XDs6qOpa_2APzOStyn8Z-59" target="XDs6qOpa_2APzOStyn8Z-63">
          <mxGeometry relative="1" as="geometry" />
        </mxCell>
        <mxCell id="XDs6qOpa_2APzOStyn8Z-88" style="edgeStyle=orthogonalEdgeStyle;rounded=0;orthogonalLoop=1;jettySize=auto;html=1;exitX=0.25;exitY=1;exitDx=0;exitDy=0;entryX=0.5;entryY=0;entryDx=0;entryDy=0;entryPerimeter=0;" edge="1" parent="1" source="XDs6qOpa_2APzOStyn8Z-59" target="XDs6qOpa_2APzOStyn8Z-60">
          <mxGeometry relative="1" as="geometry" />
        </mxCell>
        <mxCell id="XDs6qOpa_2APzOStyn8Z-89" value="" style="group" vertex="1" connectable="0" parent="1">
          <mxGeometry x="98.5" y="595.82" width="166" height="75.45999999999992" as="geometry" />
        </mxCell>
        <mxCell id="XDs6qOpa_2APzOStyn8Z-90" value="" style="strokeWidth=2;html=1;shape=mxgraph.flowchart.multi-document;whiteSpace=wrap;" vertex="1" parent="XDs6qOpa_2APzOStyn8Z-89">
          <mxGeometry x="46.5" width="66.27" height="45.18" as="geometry" />
        </mxCell>
        <mxCell id="XDs6qOpa_2APzOStyn8Z-91" value="&lt;span style=&quot;font-size: 15px;&quot;&gt;Mostrar Resultados Avançados&lt;/span&gt;" style="text;whiteSpace=wrap;html=1;labelBackgroundColor=none;align=center;" vertex="1" parent="XDs6qOpa_2APzOStyn8Z-89">
          <mxGeometry y="45.17999999999995" width="166" height="30.28" as="geometry" />
        </mxCell>
        <mxCell id="XDs6qOpa_2APzOStyn8Z-92" value="" style="group" vertex="1" connectable="0" parent="1">
          <mxGeometry x="-88" y="597" width="166" height="72.27999999999997" as="geometry" />
        </mxCell>
        <mxCell id="XDs6qOpa_2APzOStyn8Z-93" value="" style="strokeWidth=2;html=1;shape=mxgraph.flowchart.multi-document;whiteSpace=wrap;" vertex="1" parent="XDs6qOpa_2APzOStyn8Z-92">
          <mxGeometry x="49.860000000000014" width="66.27" height="45.18" as="geometry" />
        </mxCell>
        <mxCell id="XDs6qOpa_2APzOStyn8Z-94" value="&lt;span style=&quot;font-size: 15px;&quot;&gt;Mostrar Resultados Simples&lt;/span&gt;" style="text;whiteSpace=wrap;html=1;labelBackgroundColor=none;align=center;" vertex="1" parent="XDs6qOpa_2APzOStyn8Z-92">
          <mxGeometry y="42" width="166" height="30.28" as="geometry" />
        </mxCell>
        <mxCell id="XDs6qOpa_2APzOStyn8Z-105" style="edgeStyle=orthogonalEdgeStyle;rounded=0;orthogonalLoop=1;jettySize=auto;html=1;entryX=-0.008;entryY=0.586;entryDx=0;entryDy=0;entryPerimeter=0;exitX=1;exitY=0.5;exitDx=0;exitDy=0;exitPerimeter=0;" edge="1" parent="XDs6qOpa_2APzOStyn8Z-92" source="XDs6qOpa_2APzOStyn8Z-93">
          <mxGeometry relative="1" as="geometry">
            <mxPoint x="141" y="22" as="sourcePoint" />
            <mxPoint x="232.13" y="22.450000000000045" as="targetPoint" />
          </mxGeometry>
        </mxCell>
        <mxCell id="XDs6qOpa_2APzOStyn8Z-120" value="&lt;font style=&quot;font-size: 15px;&quot;&gt;|||&lt;/font&gt;" style="edgeLabel;html=1;align=center;verticalAlign=middle;resizable=0;points=[];" vertex="1" connectable="0" parent="XDs6qOpa_2APzOStyn8Z-105">
          <mxGeometry x="-0.1633" y="2" relative="1" as="geometry">
            <mxPoint as="offset" />
          </mxGeometry>
        </mxCell>
        <mxCell id="XDs6qOpa_2APzOStyn8Z-95" value="" style="group" vertex="1" connectable="0" parent="1">
          <mxGeometry x="1.75" y="444" width="166" height="97.72999999999996" as="geometry" />
        </mxCell>
        <mxCell id="XDs6qOpa_2APzOStyn8Z-96" value="" style="ellipse;shape=cloud;whiteSpace=wrap;html=1;strokeWidth=2;" vertex="1" parent="XDs6qOpa_2APzOStyn8Z-95">
          <mxGeometry x="28" width="103.5" height="69" as="geometry" />
        </mxCell>
        <mxCell id="XDs6qOpa_2APzOStyn8Z-97" value="&lt;span style=&quot;font-size: 15px;&quot;&gt;Mostrar Resultados&lt;/span&gt;" style="text;whiteSpace=wrap;html=1;labelBackgroundColor=none;align=center;" vertex="1" parent="XDs6qOpa_2APzOStyn8Z-95">
          <mxGeometry y="67.44999999999999" width="166" height="30.28" as="geometry" />
        </mxCell>
        <mxCell id="XDs6qOpa_2APzOStyn8Z-98" style="edgeStyle=orthogonalEdgeStyle;rounded=0;orthogonalLoop=1;jettySize=auto;html=1;exitX=0.75;exitY=1;exitDx=0;exitDy=0;entryX=0.5;entryY=0;entryDx=0;entryDy=0;entryPerimeter=0;" edge="1" parent="1" source="XDs6qOpa_2APzOStyn8Z-97" target="XDs6qOpa_2APzOStyn8Z-90">
          <mxGeometry relative="1" as="geometry" />
        </mxCell>
        <mxCell id="XDs6qOpa_2APzOStyn8Z-99" style="edgeStyle=orthogonalEdgeStyle;rounded=0;orthogonalLoop=1;jettySize=auto;html=1;exitX=0.25;exitY=1;exitDx=0;exitDy=0;entryX=0.5;entryY=0;entryDx=0;entryDy=0;entryPerimeter=0;" edge="1" parent="1" source="XDs6qOpa_2APzOStyn8Z-97" target="XDs6qOpa_2APzOStyn8Z-93">
          <mxGeometry relative="1" as="geometry" />
        </mxCell>
        <mxCell id="XDs6qOpa_2APzOStyn8Z-100" style="edgeStyle=orthogonalEdgeStyle;rounded=0;orthogonalLoop=1;jettySize=auto;html=1;exitX=1;exitY=0.5;exitDx=0;exitDy=0;entryX=0.16;entryY=0.55;entryDx=0;entryDy=0;entryPerimeter=0;" edge="1" parent="1" source="XDs6qOpa_2APzOStyn8Z-70" target="XDs6qOpa_2APzOStyn8Z-96">
          <mxGeometry relative="1" as="geometry" />
        </mxCell>
        <mxCell id="XDs6qOpa_2APzOStyn8Z-118" value="&lt;font style=&quot;font-size: 15px;&quot;&gt;[]&amp;gt;&amp;gt;&lt;/font&gt;" style="edgeLabel;html=1;align=center;verticalAlign=middle;resizable=0;points=[];" vertex="1" connectable="0" parent="XDs6qOpa_2APzOStyn8Z-100">
          <mxGeometry x="-0.1455" y="1" relative="1" as="geometry">
            <mxPoint as="offset" />
          </mxGeometry>
        </mxCell>
        <mxCell id="XDs6qOpa_2APzOStyn8Z-106" style="edgeStyle=orthogonalEdgeStyle;rounded=0;orthogonalLoop=1;jettySize=auto;html=1;exitX=0.31;exitY=0.8;exitDx=0;exitDy=0;exitPerimeter=0;entryX=0.625;entryY=0.2;entryDx=0;entryDy=0;entryPerimeter=0;" edge="1" parent="1" source="XDs6qOpa_2APzOStyn8Z-57" target="XDs6qOpa_2APzOStyn8Z-58">
          <mxGeometry relative="1" as="geometry" />
        </mxCell>
        <mxCell id="XDs6qOpa_2APzOStyn8Z-107" style="edgeStyle=orthogonalEdgeStyle;rounded=0;orthogonalLoop=1;jettySize=auto;html=1;exitX=0.8;exitY=0.8;exitDx=0;exitDy=0;exitPerimeter=0;entryX=0.5;entryY=0;entryDx=0;entryDy=0;" edge="1" parent="1" source="XDs6qOpa_2APzOStyn8Z-57" target="XDs6qOpa_2APzOStyn8Z-70">
          <mxGeometry relative="1" as="geometry">
            <Array as="points">
              <mxPoint x="-104" y="371" />
            </Array>
          </mxGeometry>
        </mxCell>
        <mxCell id="XDs6qOpa_2APzOStyn8Z-110" style="edgeStyle=orthogonalEdgeStyle;rounded=0;orthogonalLoop=1;jettySize=auto;html=1;exitX=0.16;exitY=0.55;exitDx=0;exitDy=0;exitPerimeter=0;entryX=0.5;entryY=0;entryDx=0;entryDy=0;" edge="1" parent="1" source="XDs6qOpa_2APzOStyn8Z-57" target="XDs6qOpa_2APzOStyn8Z-55">
          <mxGeometry relative="1" as="geometry" />
        </mxCell>
        <mxCell id="XDs6qOpa_2APzOStyn8Z-111" style="edgeStyle=orthogonalEdgeStyle;rounded=0;orthogonalLoop=1;jettySize=auto;html=1;exitX=0.875;exitY=0.5;exitDx=0;exitDy=0;exitPerimeter=0;entryX=0.625;entryY=0.2;entryDx=0;entryDy=0;entryPerimeter=0;" edge="1" parent="1" source="XDs6qOpa_2APzOStyn8Z-57" target="XDs6qOpa_2APzOStyn8Z-96">
          <mxGeometry relative="1" as="geometry" />
        </mxCell>
      </root>
    </mxGraphModel>
  </diagram>
</mxfile>
